<svg width="47" height="50" viewBox="0 0 47 50" fill="none" xmlns="http://www.w3.org/2000/svg">
<path d="M43.459 36.5921L32.5723 31.4427V13.6868H43.459V36.5921Z" fill="#DADEF6"/>
<path d="M0.00585938 15.762C0.00620771 15.0254 0.775706 14.5422 1.43945 14.8616L11.4227 19.6655C11.7645 19.83 11.9838 20.1736 11.989 20.5528L12.1784 34.3064C12.1885 35.0416 12.9618 35.5148 13.6211 35.1893L24.0303 30.049C24.6927 29.722 25.4688 30.2012 25.4731 30.9399L25.5771 48.9984C25.5812 49.7349 24.815 50.2221 24.1494 49.9056L1.87988 39.3109V39.3109C1.36401 39.0654 0.359335 38.0859 0.103979 37.5749C0.0378375 37.4426 -2.15311e-06 37.2917 0 37.1282L0.00585938 15.762Z" fill="#4361EE"/>
<path d="M42.9125 11.4293C44.4229 12.153 44.4309 14.3003 42.9258 15.0318L25.8312 23.3397C24.5056 23.9839 22.9608 23.0203 22.9553 21.5458L22.8941 5.01804C22.8887 3.54354 24.4263 2.57202 25.7566 3.20943L42.9125 11.4293Z" fill="#4361EE"/>
</svg>
